<svg id="Layer_1" data-name="Layer 1" xmlns="http://www.w3.org/2000/svg" viewBox="0 0 387.94 84.4"><defs><style>.cls-1{fill:#60bbea;}.cls-2{fill:#f4a01d;fill-rule:evenodd;}</style></defs><path class="cls-1" d="M928.61,521.84h6.83v34.87h-13a12.4,12.4,0,0,1-5.46-.92,23.28,23.28,0,0,1-2.28-1.29,12.18,12.18,0,0,1-1.38-1.21,10,10,0,0,1-1.67-2.25A13,13,0,0,1,910.4,548a12.43,12.43,0,0,1-.46-3.39v-.54c0-3.62.76-6.4,2.3-8.34A10.65,10.65,0,0,1,917,532a18.37,18.37,0,0,1,5.85-.83h5.77Zm-2.14,29.44h2.14V536.73l-1.56-.05h-1.89l-3.34.15a4.68,4.68,0,0,0-2.77,1.31,5.83,5.83,0,0,0-1.6,2.83,16,16,0,0,0-.39,3.71,9.52,9.52,0,0,0,.51,3.37,4.78,4.78,0,0,0,2,2.28q1.49.95,5.17.95h1.74Z" transform="translate(-765.54 -498.73)"/><path class="cls-1" d="M953.05,536.44h-11.3v-5.29h13.82a19.5,19.5,0,0,1,4.54.49,8.32,8.32,0,0,1,4,2.54c1.31,1.38,2,3.55,2,6.53v16H948a7.84,7.84,0,0,1-5.82-2,7.06,7.06,0,0,1-2.14-5.53v-.67a9.81,9.81,0,0,1,1-3.62,5.57,5.57,0,0,1,2.18-2.23,10,10,0,0,1,3-1.11,21.49,21.49,0,0,1,4-.32h8.93a5.26,5.26,0,0,0-.75-3.08,3.49,3.49,0,0,0-2-1.36A14.68,14.68,0,0,0,953.05,536.44Zm-2.28,15.18h8.44v-5.34h-8a7.27,7.27,0,0,0-2.88.51,2.1,2.1,0,0,0-1.19,2.16,2.6,2.6,0,0,0,.51,1.72,2.26,2.26,0,0,0,1.21.78A8.45,8.45,0,0,0,950.77,551.62Z" transform="translate(-765.54 -498.73)"/><path class="cls-1" d="M974.24,536.24h-4.7v-5.09h4.7v-9.31H981v9.31h7.23v5.09H981v10.33a6.16,6.16,0,0,0,.75,3.4,3.26,3.26,0,0,0,2.07,1.4,23.44,23.44,0,0,0,3.73.25h.68v5.09h-6.16a7.59,7.59,0,0,1-5.82-2.13,8.21,8.21,0,0,1-2-5.82Z" transform="translate(-765.54 -498.73)"/><path class="cls-1" d="M1003.92,536.44h-11.3v-5.29h13.82a19.5,19.5,0,0,1,4.54.49,8.32,8.32,0,0,1,4,2.54c1.31,1.38,2,3.55,2,6.53v16H998.88a7.87,7.87,0,0,1-5.82-2,7.06,7.06,0,0,1-2.14-5.53v-.67a10.21,10.21,0,0,1,1-3.62,5.59,5.59,0,0,1,2.19-2.23,9.83,9.83,0,0,1,3-1.11,21.34,21.34,0,0,1,4-.32h8.92a5.26,5.26,0,0,0-.75-3.08,3.46,3.46,0,0,0-2-1.36A14.62,14.62,0,0,0,1003.92,536.44Zm-2.28,15.18h8.44v-5.34h-8a7.29,7.29,0,0,0-2.89.51,2.1,2.1,0,0,0-1.19,2.16,2.6,2.6,0,0,0,.51,1.72,2.28,2.28,0,0,0,1.22.78A8.35,8.35,0,0,0,1001.64,551.62Z" transform="translate(-765.54 -498.73)"/><path class="cls-1" d="M1044,565.88h-6.69V531.15h12.94a15.23,15.23,0,0,1,5.07.83,10.25,10.25,0,0,1,3.93,2.4,10.81,10.81,0,0,1,2.45,3.85,12.79,12.79,0,0,1,.8,2.43,12,12,0,0,1,.27,2.62v.92a14.09,14.09,0,0,1-2.77,8.63,9.18,9.18,0,0,1-2.81,2.38,11.88,11.88,0,0,1-3.35,1.16,21.06,21.06,0,0,1-4,.34H1044Zm0-29.25v14.6h2.52a23.23,23.23,0,0,0,5.12-.44,4.8,4.8,0,0,0,2.91-2,9.11,9.11,0,0,0,1.09-5v-.48c0-2.65-.63-4.42-1.87-5.31a9.41,9.41,0,0,0-5.5-1.34H1044Z" transform="translate(-765.54 -498.73)"/><path class="cls-1" d="M1067,521.84h7v6.35h-7Zm0,9.31h7v25.56h-7Z" transform="translate(-765.54 -498.73)"/><path class="cls-1" d="M1086.56,565.88h-6.69V531.15h13a15.13,15.13,0,0,1,5.06.83,10.25,10.25,0,0,1,3.93,2.4,10.81,10.81,0,0,1,2.45,3.85,12.79,12.79,0,0,1,.8,2.43,12,12,0,0,1,.27,2.62v.92a14.09,14.09,0,0,1-2.77,8.63,9.18,9.18,0,0,1-2.81,2.38,11.77,11.77,0,0,1-3.35,1.16,21.06,21.06,0,0,1-4,.34h-5.87Zm0-29.25v14.6h2.52a23.16,23.16,0,0,0,5.12-.44,4.8,4.8,0,0,0,2.91-2,9,9,0,0,0,1.09-5v-.48q0-4-1.87-5.31a9.41,9.41,0,0,0-5.5-1.34h-4.27Z" transform="translate(-765.54 -498.73)"/><path class="cls-1" d="M1130.69,551.42v5.29h-9.84q-6.55,0-9.73-3.49t-3.17-9.31c0-3.88.82-6.74,2.47-8.56a11.07,11.07,0,0,1,5-3.47,19.28,19.28,0,0,1,5.46-.73h9.84v5.29h-8.92a13.66,13.66,0,0,0-3.45.34,3.34,3.34,0,0,0-2,1.4,4.9,4.9,0,0,0-.88,3.11h15.23v5.38h-15.23a5.38,5.38,0,0,0,.71,3,3.51,3.51,0,0,0,2,1.43,16.23,16.23,0,0,0,3.54.29Z" transform="translate(-765.54 -498.73)"/><path class="cls-1" d="M1141.75,556.71h-6.69V531.15h11.34a9.81,9.81,0,0,1,4.66.87,4,4,0,0,1,2,2.38,15.69,15.69,0,0,1,.43,4.17v3.25h-6.4v-2a9.27,9.27,0,0,0-.24-2.64,1.47,1.47,0,0,0-.92-.9c-.42-.06-.79-.11-1.12-.14s-.85-.05-1.6-.05h-1.45Z" transform="translate(-765.54 -498.73)"/><path class="cls-1" d="M874.31,530.9c1.4-8.91-1-16.2-6.84-20.64-6.25-4.75-14.78-5-20.42-2.92-5.61-7.22-15.17-10.2-25.36-7.79-10,2.35-20.74,10.32-22.31,22.83a1.91,1.91,0,1,0,3.79.47c1.34-10.69,10.71-17.54,19.4-19.59,9.33-2.2,17.64.6,22.24,7.5a1.9,1.9,0,0,0,2.45.64c4.55-2.29,12.49-2.21,17.9,1.9,5,3.79,6.77,10.1,5.16,18.24a1.91,1.91,0,0,0,.54,1.74l.21.2a2.07,2.07,0,0,0,.54.37,22.41,22.41,0,0,1,9.31,7.24h-18a1.91,1.91,0,1,0,0,3.81H883a15.5,15.5,0,0,1,.77,7.88h-28a1.91,1.91,0,1,0,0,3.81h26.86a16.21,16.21,0,0,1-15,9.45H844.28a1.91,1.91,0,1,0,0,3.81h23.33a19.86,19.86,0,0,0,19.73-15.57C889,546.78,886.32,536.83,874.31,530.9Z" transform="translate(-765.54 -498.73)"/><path class="cls-1" d="M839.25,532.89h0l.26,0,19.51-2.6a1.91,1.91,0,0,0-.25-3.8H842c-2-1.85-8.55-7.18-14.63-3.87a11.11,11.11,0,0,0-4.71,4.84,21.72,21.72,0,0,0-2,4.42,1.88,1.88,0,0,0,1.47,2.19,2,2,0,0,0,2.28-1.44,24.84,24.84,0,0,1,1.66-3.38,7.39,7.39,0,0,1,3.17-3.28c3.16-1.72,7,.71,9.12,2.39-1.81,1.67-4.26,4.36-4.38,6.84a2.18,2.18,0,0,0,.16,1c5.24,13,5.73,23.21-8.91,30.94-4.14,2.18-6.94,2.75-13.82,3.45-4.8.5-15.52,3.69-23.13,7,2.23-5.83,7.93-17,20.93-26.38l9.07,5.52a1.91,1.91,0,0,0,2-3.26l-10.14-6.17h0l0,0h0a1.84,1.84,0,0,0-.38-.17l-.12,0a1.52,1.52,0,0,0-.42-.06H792.66a1.91,1.91,0,1,0,0,3.81h10.78c-16.63,13.69-20.05,29.3-20.19,30a1.91,1.91,0,0,0,1.86,2.3,1.92,1.92,0,0,0,.91-.23c6.76-3.67,20.46-8,25.76-8.53,6.78-.7,10.27-1.28,15.21-3.88,18-9.51,15.68-23.16,10.82-35.34A7,7,0,0,1,839.25,532.89Z" transform="translate(-765.54 -498.73)"/><path class="cls-1" d="M820.76,540.86a1.91,1.91,0,0,0,2.74-2.66l-9-9.25a1.89,1.89,0,0,0-1.36-.57h-38a1.91,1.91,0,1,0,0,3.81h37.17Z" transform="translate(-765.54 -498.73)"/><path class="cls-1" d="M808.79,541l11.74,8.59a1.91,1.91,0,1,0,2.25-3.08l-12.24-9a2,2,0,0,0-1.13-.36H783.66a1.91,1.91,0,0,0,0,3.81Z" transform="translate(-765.54 -498.73)"/><path class="cls-2" d="M857.67,537.78a5.22,5.22,0,1,0,5.22,5.21A5.22,5.22,0,0,0,857.67,537.78Zm0,7.21a2,2,0,1,1,2-2A2,2,0,0,1,857.67,545Z" transform="translate(-765.54 -498.73)"/><path class="cls-2" d="M850.5,549.46a5.22,5.22,0,1,0,5.22,5.22A5.22,5.22,0,0,0,850.5,549.46Zm0,7.22a2,2,0,1,1,2-2A2,2,0,0,1,850.5,556.68Z" transform="translate(-765.54 -498.73)"/><path class="cls-2" d="M770.76,525.07a5.22,5.22,0,1,0,5.22,5.21A5.22,5.22,0,0,0,770.76,525.07Zm0,7.22a2,2,0,1,1,2-2A2,2,0,0,1,770.76,532.29Z" transform="translate(-765.54 -498.73)"/><path class="cls-2" d="M779.21,534.31a5.22,5.22,0,1,0,5.22,5.22A5.22,5.22,0,0,0,779.21,534.31Zm0,7.22a2,2,0,1,1,2-2A2,2,0,0,1,779.21,541.53Z" transform="translate(-765.54 -498.73)"/><path class="cls-2" d="M788.51,543.7a5.22,5.22,0,1,0,5.22,5.21A5.22,5.22,0,0,0,788.51,543.7Zm0,7.21a2,2,0,1,1,2-2A2,2,0,0,1,788.51,550.91Z" transform="translate(-765.54 -498.73)"/></svg>